<svg width="54" height="51" viewBox="0 0 54 51" fill="none" xmlns="http://www.w3.org/2000/svg">
<path d="M53.9415 37.2626C53.6985 36.3581 52.7636 35.8485 51.876 36.0679L27.0838 42.7063C26.6619 42.0955 26.1456 41.5555 25.4841 41.1741C24.8226 40.7927 24.097 40.6173 23.3579 40.5599L12.8348 1.2521C12.6357 0.512989 11.9675 0 11.2048 0H1.68746C0.755984 0 0 0.755984 0 1.68746C0 2.61894 0.755984 3.37493 1.68746 3.37493H9.90879L20.0943 41.4306C19.4835 41.8525 18.9468 42.3688 18.5655 43.0303C17.8871 44.2014 17.7082 45.5649 18.0592 46.8744C18.6701 49.1322 20.7187 50.6239 22.9563 50.6239C23.3882 50.6239 23.827 50.5665 24.2657 50.4484C26.3852 49.8814 27.8094 48.0353 27.9815 45.9631L52.7501 39.328C53.6479 39.085 54.1845 38.1637 53.9415 37.2626ZM23.3882 47.1882C22.4871 47.4312 21.5624 46.8946 21.3228 45.9935C21.2047 45.5582 21.2654 45.1025 21.4915 44.7144C21.7177 44.3263 22.0822 44.0462 22.5175 43.9281C22.6626 43.8943 22.8111 43.8741 22.9596 43.8741C23.2499 43.8741 23.5367 43.9483 23.7966 44.0968C24.1881 44.3195 24.4682 44.6874 24.583 45.1228C24.8226 46.0239 24.286 46.9486 23.3882 47.1882Z" fill="#E36F2C"/>
<path d="M43.6682 12.0215C43.4151 11.1272 42.4904 10.6041 41.5825 10.8639L34.4176 12.9159L35.9194 18.1571L31.9572 16.9793L29.4362 20.0167L27.9343 14.7755L20.5162 16.8983L26.095 37.7418C26.4662 37.8836 26.8206 38.049 27.1581 38.2447C27.5057 38.4472 27.8364 38.6733 28.1503 38.9264L49.7195 33.1486L43.6682 12.0215Z" fill="#E36F2C"/>
</svg>
