<svg width="50" height="54" viewBox="0 0 50 54" fill="none" xmlns="http://www.w3.org/2000/svg">
<path d="M41.4043 0H6.62469L6.76381 0.0674968C2.9778 0.404981 0 3.60433 0 7.54615V20.2491H13.2494V52.3101C13.2494 52.8703 13.5243 53.3934 13.9781 53.7072C14.4319 54.0211 15.0115 54.0818 15.5216 53.876L23.1864 50.7509L30.8512 53.876C31.2453 54.0413 31.6859 54.0413 32.0801 53.876L39.7481 50.7509L47.4129 53.876C47.6116 53.957 47.8236 53.9975 48.029 53.9975C48.3569 53.9975 48.6782 53.8996 48.9565 53.7072C49.4136 53.3934 49.6852 52.8703 49.6852 52.3101V8.43711C49.6852 3.78657 45.972 0 41.4043 0ZM13.2494 16.8742H3.31234V7.54615C3.31234 5.24788 5.1507 3.37484 7.4064 3.37484H9.15532C11.411 3.37484 13.2494 5.24788 13.2494 7.54615V16.8742ZM41.4043 40.4981H28.1549C27.2407 40.4981 26.4988 39.7421 26.4988 38.8107C26.4988 37.8792 27.2407 37.1233 28.1549 37.1233H41.4043C42.3185 37.1233 43.0605 37.8792 43.0605 38.8107C43.0605 39.7421 42.3185 40.4981 41.4043 40.4981ZM41.4043 33.7484H28.1549C27.2407 33.7484 26.4988 32.9925 26.4988 32.061C26.4988 31.1295 27.2407 30.3736 28.1549 30.3736H41.4043C42.3185 30.3736 43.0605 31.1295 43.0605 32.061C43.0605 32.9925 42.3185 33.7484 41.4043 33.7484ZM41.4043 26.9987H21.5302C20.616 26.9987 19.8741 26.2428 19.8741 25.3113C19.8741 24.3799 20.616 23.6239 21.5302 23.6239H41.4043C42.3185 23.6239 43.0605 24.3799 43.0605 25.3113C43.0605 26.2428 42.3185 26.9987 41.4043 26.9987ZM41.4043 13.4994H21.5302C20.616 13.4994 19.8741 12.7434 19.8741 11.8119C19.8741 10.8805 20.616 10.1245 21.5302 10.1245H41.4043C42.3185 10.1245 43.0605 10.8805 43.0605 11.8119C43.0605 12.7434 42.3185 13.4994 41.4043 13.4994Z" fill="#3E8A74"/>
</svg>
