<svg width="54" height="44" viewBox="0 0 54 44" fill="none" xmlns="http://www.w3.org/2000/svg">
<path d="M53.696 12.5211L45.2586 0.708743C44.9211 0.269997 44.4148 0 43.8748 0H10.1252C9.58519 0 9.07894 0.269997 8.74144 0.708743L0.304026 12.5211C0.202777 12.8249 0.101528 13.1286 0.00027855 13.4324C-0.0334711 17.1786 3.004 20.2498 6.75021 20.2498C8.77519 20.2498 10.5639 19.3723 11.8127 17.9548C13.0614 19.3723 14.8501 20.2498 16.8751 20.2498C18.9001 20.2498 20.6888 19.3723 21.9376 17.9548C23.1863 19.3723 24.975 20.2498 27 20.2498C29.025 20.2498 30.8137 19.3723 32.0625 17.9548C33.3112 19.3723 35.0999 20.2498 37.1249 20.2498C39.1499 20.2498 40.9386 19.3723 42.1874 17.9548C43.4361 19.3723 45.2248 20.2498 47.2498 20.2498C50.996 20.2498 54.0335 17.1786 53.9997 13.4324C53.8985 13.1286 53.7972 12.8249 53.696 12.5211Z" fill="#3E8A74"/>
<path d="M47.25 23.6248C45.4579 23.6248 43.713 23.1455 42.1875 22.2613C39.1366 24.0264 35.1136 24.0264 32.0626 22.2613C29.0117 24.0264 24.9853 24.0264 21.9377 22.2613C18.8901 24.0264 14.8604 24.0264 11.8128 22.2613C9.27824 23.7328 6.13952 23.9218 3.37542 22.9666V40.4996C3.37542 42.3626 4.88741 43.8746 6.75039 43.8746H33.7501V26.9997H43.875V43.8746H47.25C49.113 43.8746 50.625 42.3626 50.625 40.4996V23.0071C49.5517 23.3885 48.4211 23.6248 47.25 23.6248ZM23.6252 37.1246H10.1254V26.9997H23.6252V37.1246Z" fill="#3E8A74"/>
</svg>
