<svg width="54" height="51" viewBox="0 0 54 51" fill="none" xmlns="http://www.w3.org/2000/svg">
<path d="M5.06255 23.6252H1.68752C0.756007 23.6252 0 24.3812 0 25.3127V48.938C0 49.8695 0.756007 50.6255 1.68752 50.6255H5.06255C5.99406 50.6255 6.75007 49.8695 6.75007 48.938V25.3127C6.75007 24.3812 5.99406 23.6252 5.06255 23.6252Z" fill="#3E8A74"/>
<path d="M52.934 27.2669C51.2195 25.0562 48.0334 24.6614 45.8329 26.3792L33.3858 36.0588C32.4948 36.7507 31.4013 37.1253 30.2774 37.1253H18.5627C23.2236 37.1253 27.0003 33.3487 27.0003 28.6878C27.0003 27.7563 26.2442 27.0002 25.3127 27.0002H10.1251V47.2505H32.5893C34.4658 47.2505 36.2883 46.6261 37.77 45.4718L52.0464 34.3679C54.2536 32.6534 54.6485 29.4741 52.934 27.2669Z" fill="#3E8A74"/>
<path d="M45.563 0H33.7503V13.5001L27.0003 9.00121L20.2502 13.5001V0H8.43758C7.50607 0 6.75007 0.756007 6.75007 1.68752V20.5607C8.17095 21.0737 9.30497 22.1976 9.8146 23.6252H25.3127C28.1039 23.6252 30.3753 25.8966 30.3753 28.6878C30.3753 30.4968 29.9635 32.2147 29.2345 33.7503H30.2774C30.6554 33.7503 31.0132 33.6288 31.3136 33.396L43.7607 23.7164C44.8002 22.9064 46.0017 22.4001 47.2538 22.1436V1.68752C47.2505 0.756007 46.4945 0 45.563 0Z" fill="#3E8A74"/>
</svg>
