<svg width="40" height="54" viewBox="0 0 40 54" fill="none" xmlns="http://www.w3.org/2000/svg">
<path d="M39.0572 0.32001C38.6266 0.00279105 38.0702 -0.0883251 37.5667 0.0905325L28.2065 3.26947L20.4891 0.124279C20.095 -0.037705 19.6545 -0.037705 19.2603 0.124279L11.5429 3.26947L2.17941 0.0905325C1.67265 -0.0883251 1.11952 0.00279105 0.688933 0.32001C0.25835 0.637229 0 1.1468 0 1.69013V52.3102C0 52.8535 0.255037 53.3631 0.688933 53.6769C1.11952 53.9975 1.67596 54.0718 2.18272 53.9098L11.5429 50.7308L19.2636 53.876C19.6578 54.0414 20.0983 54.0414 20.4924 53.876L28.2098 50.7308L37.57 53.9098C37.7389 53.9672 37.9145 53.9975 38.09 53.9975C38.4345 53.9975 38.7723 53.8895 39.0572 53.6769C39.4911 53.3631 39.7461 52.8535 39.7461 52.3102V1.69013C39.7461 1.1468 39.4911 0.637229 39.0572 0.32001ZM8.28044 10.1268H21.5291C22.4433 10.1268 23.1852 10.8827 23.1852 11.8141C23.1852 12.7455 22.4433 13.5015 21.5291 13.5015H8.28044C7.36628 13.5015 6.62435 12.7455 6.62435 11.8141C6.62435 10.8827 7.36628 10.1268 8.28044 10.1268ZM18.217 37.1242H8.28044C7.36628 37.1242 6.62435 36.3682 6.62435 35.4368C6.62435 34.5054 7.36628 33.7495 8.28044 33.7495H18.217C19.1311 33.7495 19.8731 34.5054 19.8731 35.4368C19.8731 36.3682 19.1311 37.1242 18.217 37.1242ZM18.217 27.0002H8.28044C7.36628 27.0002 6.62435 26.2442 6.62435 25.3128C6.62435 24.3814 7.36628 23.6255 8.28044 23.6255H18.217C19.1311 23.6255 19.8731 24.3814 19.8731 25.3128C19.8731 26.2442 19.1311 27.0002 18.217 27.0002ZM29.8096 40.239V42.1862C29.8096 43.1176 29.0677 43.8735 28.1535 43.8735C27.2393 43.8735 26.4974 43.1176 26.4974 42.1862V40.266C25.9642 40.1108 25.464 39.8779 25.0136 39.5742C24.2551 39.0579 24.0497 38.0083 24.5565 37.2322C25.0666 36.4594 26.0933 36.2535 26.8551 36.7665C27.1996 36.9993 27.6501 37.1242 28.1535 37.1242C29.167 37.1242 29.8096 36.5707 29.8096 36.2805C29.8096 35.9903 29.167 35.4368 28.1535 35.4368C25.4143 35.4368 23.1852 33.5436 23.1852 31.2185C23.1852 29.386 24.573 27.8404 26.4974 27.26V25.3128C26.4974 24.3814 27.2393 23.6255 28.1535 23.6255C29.0677 23.6255 29.8096 24.3814 29.8096 25.3128V27.233C30.3428 27.3882 30.8463 27.6211 31.2934 27.9248C32.0519 28.4411 32.2573 29.4907 31.7505 30.2635C31.2405 31.0363 30.217 31.2489 29.4519 30.7292C29.1107 30.4963 28.6603 30.3748 28.1535 30.3748C27.14 30.3748 26.4974 30.9283 26.4974 31.2185C26.4974 31.5087 27.14 32.0622 28.1535 32.0622C30.8927 32.0622 33.1218 33.9554 33.1218 36.2805C33.1218 38.1129 31.734 39.6585 29.8096 40.239ZM31.4657 20.2508H8.28044C7.36628 20.2508 6.62435 19.4949 6.62435 18.5635C6.62435 17.6321 7.36628 16.8761 8.28044 16.8761H31.4657C32.3798 16.8761 33.1218 17.6321 33.1218 18.5635C33.1218 19.4949 32.3798 20.2508 31.4657 20.2508Z" fill="#3E8A74"/>
</svg>
