<svg width="47" height="44" viewBox="0 0 47 44" fill="none" xmlns="http://www.w3.org/2000/svg">
<path d="M32.4888 16.6557C32.1373 16.1368 31.6854 15.6698 31.2335 15.2547C26.413 10.8443 19.0315 11.3113 14.8136 16.3443C13.2569 18.2123 12.2527 20.4953 11.9514 22.934C11.4995 26.9293 13.0561 30.8727 16.0689 33.4151L16.6213 33.9859H30.4803L30.8318 33.5708C35.8029 29.368 36.5562 21.7925 32.4888 16.6557Z" fill="#E36F2C"/>
<path d="M17.3239 36.0613V42.4434C17.3239 43.3255 17.9767 44 18.8303 44H28.1701C29.0237 44 29.6765 43.3255 29.6765 42.4434V36.0613H17.3239Z" fill="#E36F2C"/>
<path d="M25.0065 0H21.9936V8.04247H25.0065V0Z" fill="#E36F2C"/>
<path d="M7.78314 22.7264H0V25.8396H7.78314V22.7264Z" fill="#E36F2C"/>
<path d="M47 22.7264H39.2169V25.8396H47V22.7264Z" fill="#E36F2C"/>
<path d="M11.3633 34.6629L5.85992 40.3496L7.99029 42.551L13.4937 36.8642L11.3633 34.6629Z" fill="#E36F2C"/>
<path d="M39.0566 6.01771L33.5532 11.7045L35.6836 13.9058L41.187 8.21907L39.0566 6.01771Z" fill="#E36F2C"/>
<path d="M7.9722 6.02996L5.84183 8.23131L11.3452 13.9181L13.4756 11.7167L7.9722 6.02996Z" fill="#E36F2C"/>
<path d="M35.693 34.6485L33.5627 36.8498L39.0661 42.5366L41.1964 40.3352L35.693 34.6485Z" fill="#E36F2C"/>
</svg>
