<svg width="23" height="23" viewBox="0 0 23 23" fill="none" xmlns="http://www.w3.org/2000/svg">
<path d="M21.6631 1.90985H17.134V0H15.497V1.90985H6.98458V0H5.34757V1.90985H0.818505C0.354686 1.90985 0 2.26453 0 2.72835V22.1815C0 22.6453 0.354686 23 0.818505 23H21.6631C22.1269 23 22.4816 22.6453 22.4816 22.1815V2.72835C22.4816 2.29182 22.1269 1.90985 21.6631 1.90985ZM5.59312 18.7983C4.69276 18.7983 3.98339 18.089 3.98339 17.1886C3.98339 16.2883 4.69276 15.5789 5.59312 15.5789C6.49347 15.5789 7.20285 16.2883 7.20285 17.1886C7.20285 18.089 6.49347 18.7983 5.59312 18.7983ZM5.59312 13.9964C4.69276 13.9964 3.98339 13.2871 3.98339 12.3867C3.98339 11.4864 4.69276 10.777 5.59312 10.777C6.49347 10.777 7.20285 11.4864 7.20285 12.3867C7.20285 13.2871 6.49347 13.9964 5.59312 13.9964ZM11.2408 18.7983C10.3404 18.7983 9.63108 18.089 9.63108 17.1886C9.63108 16.2883 10.3404 15.5789 11.2408 15.5789C12.1412 15.5789 12.8505 16.2883 12.8505 17.1886C12.8505 18.0617 12.1412 18.7983 11.2408 18.7983ZM11.2408 13.9964C10.3404 13.9964 9.63108 13.2871 9.63108 12.3867C9.63108 11.4864 10.3404 10.777 11.2408 10.777C12.1412 10.777 12.8505 11.4864 12.8505 12.3867C12.8505 13.2598 12.1412 13.9964 11.2408 13.9964ZM16.8885 18.7983C15.9881 18.7983 15.2788 18.089 15.2788 17.1886C15.2788 16.2883 15.9881 15.5789 16.8885 15.5789C17.7888 15.5789 18.4982 16.2883 18.4982 17.1886C18.4982 18.089 17.7888 18.7983 16.8885 18.7983ZM16.8885 13.9964C15.9881 13.9964 15.2788 13.2871 15.2788 12.3867C15.2788 11.4864 15.9881 10.777 16.8885 10.777C17.7888 10.777 18.4982 11.4864 18.4982 12.3867C18.4982 13.2871 17.7888 13.9964 16.8885 13.9964ZM20.8446 6.76631H1.63701V3.54686H5.34757V5.51127H6.98458V3.54686H15.497V5.51127H17.134V3.54686H20.8446V6.76631Z" fill="#3E8A74"/>
</svg>
