<svg width="12" height="12" viewBox="0 0 12 12" fill="none" xmlns="http://www.w3.org/2000/svg">
<path d="M4.69149 3.55851C4.53192 3.39894 4.32447 3.31915 4.11702 3.31915C3.90957 3.31915 3.70213 3.39894 3.55851 3.55851C3.25532 3.8617 3.25532 4.37234 3.55851 4.69149C3.87766 4.99468 4.37234 4.99468 4.69149 4.69149C4.99468 4.3883 4.99468 3.87766 4.69149 3.55851Z" fill="white"/>
<path d="M11.3457 5.26596L6.38298 0.287234C6.19149 0.0957447 5.92021 0 5.64894 0L1.08511 0.111702C0.542553 0.12766 0.12766 0.558511 0.111702 1.08511L0 5.64894C0 5.92021 0.0957447 6.19149 0.287234 6.38298L5.25 11.3457C5.66489 11.7606 6.2234 12 6.81383 12C7.40426 12 7.96277 11.7766 8.37766 11.3457L11.3457 8.39362C11.7606 7.97872 12 7.42021 12 6.82979C12 6.23936 11.7766 5.68085 11.3457 5.26596ZM5.3617 5.3617C5.0266 5.69681 4.56383 5.87234 4.11702 5.87234C3.67021 5.87234 3.2234 5.69681 2.87234 5.3617C2.18617 4.67553 2.18617 3.55851 2.87234 2.87234C3.55851 2.18617 4.67553 2.18617 5.3617 2.87234C6.04787 3.55851 6.04787 4.67553 5.3617 5.3617Z" fill="white"/>
</svg>
