<svg width="24" height="24" viewBox="0 0 24 24" fill="none" xmlns="http://www.w3.org/2000/svg">
<path d="M9.93894 14.0621C7.64831 11.7713 7.13109 9.4805 7.01441 8.5627C6.9818 8.30892 7.06913 8.05442 7.25067 7.87414L9.10437 6.02115C9.37705 5.74862 9.42544 5.32389 9.22105 4.997L6.26962 0.413775C6.0435 0.0518049 5.57922 -0.0788337 5.19754 0.112116L0.459449 2.34373C0.150801 2.49572 -0.0307425 2.82367 0.00430115 3.16594C0.252564 5.52459 1.28078 11.3227 6.97841 17.0211C12.676 22.7195 18.473 23.7474 20.8327 23.9957C21.175 24.0307 21.5029 23.8492 21.6549 23.5405L23.8863 18.8021C24.0766 18.4212 23.9468 17.9582 23.5863 17.7316L19.0034 14.7808C18.6767 14.5762 18.2521 14.6243 17.9793 14.8967L16.1265 16.7505C15.9462 16.9321 15.6917 17.0194 15.438 16.9868C14.5202 16.8701 12.2296 16.3529 9.93894 14.0621Z" fill="#3E8A74"/>
<path d="M19.0347 12.8277C18.5777 12.8277 18.2072 12.4572 18.2072 12.0001C18.2033 8.57372 15.4268 5.79704 12.0006 5.79316C11.5436 5.79316 11.1731 5.42263 11.1731 4.96556C11.1731 4.5085 11.5436 4.13797 12.0006 4.13797C16.3405 4.14276 19.8575 7.65996 19.8623 12.0001C19.8623 12.4572 19.4918 12.8277 19.0347 12.8277Z" fill="#3E8A74"/>
<path d="M23.1725 12.8277C22.7154 12.8277 22.3449 12.4572 22.3449 12.0001C22.3385 6.28943 17.711 1.66158 12.0006 1.65519C11.5436 1.65519 11.1731 1.28466 11.1731 0.827596C11.1731 0.370527 11.5436 0 12.0006 0C18.6247 0.00729769 23.9927 5.37567 24 12.0001C24 12.2196 23.9128 12.4301 23.7576 12.5853C23.6024 12.7405 23.3919 12.8277 23.1725 12.8277Z" fill="#3E8A74"/>
</svg>
