<svg width="13" height="13" viewBox="0 0 13 13" fill="none" xmlns="http://www.w3.org/2000/svg">
<path d="M6.5 0C2.93293 0 0 2.93293 0 6.5C0 10.0671 2.93293 13 6.5 13C10.0671 13 13 10.0671 13 6.5C13 2.93293 10.0671 0 6.5 0ZM9.5439 7.10244H7.10244V9.5439C7.10244 9.89268 6.83293 10.1463 6.5 10.1463C6.16707 10.1463 5.89756 9.87683 5.89756 9.5439V7.10244H3.4561C3.10732 7.10244 2.85366 6.83293 2.85366 6.5C2.85366 6.16707 3.10732 5.89756 3.4561 5.89756H5.89756V3.4561C5.89756 3.10732 6.16707 2.85366 6.5 2.85366C6.83293 2.85366 7.10244 3.12317 7.10244 3.4561V5.89756H9.5439C9.89268 5.89756 10.1463 6.16707 10.1463 6.5C10.1463 6.83293 9.87683 7.10244 9.5439 7.10244Z" fill="#3E8A74"/>
</svg>
