<svg width="0" height="0" class="hidden">
  <symbol fill="none" xmlns="http://www.w3.org/2000/svg" viewBox="0 0 17 24" id="watch">
    <path d="M0 0V2.09396H16.2685V0H0Z" fill="#334752"></path>
    <path d="M0 21.906V24H16.2685V21.906H0Z" fill="#334752"></path>
    <path d="M15.0602 6.92614V3.16775H1.20789V6.92614C1.20789 7.22144 1.34212 7.51674 1.55688 7.70466L6.52333 12L1.58373 16.2953C1.36896 16.4832 1.23473 16.7785 1.23473 17.0738V20.8322H15.0602V17.0738C15.0602 16.7785 14.926 16.4832 14.7112 16.2953L9.71796 12L14.6844 7.70466C14.8992 7.51674 15.0334 7.22144 15.0602 6.92614Z" fill="#334752"></path>
  </symbol>
  <symbol fill="none" xmlns="http://www.w3.org/2000/svg" viewBox="0 0 11 16" id="watch-min">
    <path d="M9.68306 11.3825V13.3881H1.33487V11.3825C1.33487 11.3303 1.36287 11.2722 1.3971 11.2424C1.39722 11.2423 1.39734 11.2422 1.39746 11.2421L4.73622 8.37956L5.18016 7.99894L4.73521 7.61952L1.37863 4.75727C1.34454 4.72742 1.31672 4.66951 1.31672 4.61742V2.61183H9.68306V4.58923C9.67154 4.66791 9.63386 4.73022 9.60299 4.75727C9.60277 4.75747 9.60254 4.75766 9.60232 4.75786L6.24642 7.61952L5.79905 8.001L6.24743 8.38129L9.62147 11.243C9.65541 11.2729 9.68306 11.3306 9.68306 11.3825ZM10.5 0.895973H0.5V0.5H10.5V0.895973ZM10.5 15.5H0.5V15.104H10.5V15.5Z" fill="#3E8A74" stroke="#3E8A74"></path>
  </symbol>
  <symbol fill="none" xmlns="http://www.w3.org/2000/svg" viewBox="0 0 17 24" id="watch-w">
    <path d="M0 0V2.09396H16.2685V0H0Z" fill="white"></path>
    <path d="M0 21.906V24H16.2685V21.906H0Z" fill="white"></path>
    <path d="M15.0602 6.92614V3.16775H1.20789V6.92614C1.20789 7.22144 1.34212 7.51674 1.55688 7.70466L6.52333 12L1.58373 16.2953C1.36896 16.4832 1.23473 16.7785 1.23473 17.0738V20.8322H15.0602V17.0738C15.0602 16.7785 14.926 16.4832 14.7112 16.2953L9.71796 12L14.6844 7.70466C14.8992 7.51674 15.0334 7.22144 15.0602 6.92614Z" fill="white"></path>
  </symbol>
  <symbol fill="none" xmlns="http://www.w3.org/2000/svg" viewBox="0 0 26 26" id="whatss">
    <path fill-rule="evenodd" clip-rule="evenodd" d="M13.0486 0C16.5098 0 19.7598 1.34875 22.2297 3.73642L22.2135 3.77867C30.308 11.8419 24.574 25.7779 13.0551 25.7779C12.9337 25.7625 12.7681 25.7534 12.5632 25.742C11.498 25.683 9.37055 25.5651 6.86283 24.2103L0 26L1.83731 19.3245C-3.12321 10.7629 3.11455 0 13.0486 0ZM13.066 23.5625L13.0725 23.5636C22.6858 23.5636 27.4037 11.9448 20.6839 5.28231C13.9478 -1.4506 2.30751 3.31281 2.30751 12.8386C2.30751 14.8633 2.87734 16.8296 3.94982 18.5369L4.20874 18.9431L3.12 22.8919L7.18245 21.8356C7.2082 21.8468 7.26198 21.8798 7.34256 21.9291C7.94009 22.2948 10.0111 23.5625 13.0486 23.5625H13.066Z" fill="#FAFAFA"></path>
    <path d="M18.9657 15.4993L18.9559 15.5805C18.6298 15.418 17.0417 14.6413 16.7459 14.534C16.0819 14.2881 16.2693 14.495 14.9942 15.9553C14.8046 16.1666 14.6161 16.1829 14.2944 16.0366C13.9694 15.8741 12.9262 15.5328 11.6912 14.4278C10.7292 13.5666 10.0835 12.5103 9.89286 12.1853C9.57545 11.6372 10.2395 11.5592 10.844 10.4152C10.9523 10.1877 10.8971 10.0089 10.8169 9.84752C10.7357 9.68502 10.0889 8.09252 9.81811 7.45768C9.55811 6.82502 9.29053 6.90518 9.09012 6.90518C8.46613 6.85102 8.01005 6.85968 7.60814 7.27785C5.85966 9.19968 6.30057 11.1822 7.79664 13.2903C10.7368 17.1383 12.3032 17.8468 15.1675 18.8305C15.941 19.0764 16.6463 19.0418 17.2042 18.9616C17.826 18.863 19.1184 18.1805 19.3882 17.4168C19.6644 16.653 19.6644 16.0193 19.5832 15.873C19.503 15.7268 19.2907 15.6455 18.9657 15.4993Z" fill="#FAFAFA"></path>
  </symbol>
  <symbol fill="none" xmlns="http://www.w3.org/2000/svg" viewBox="0 0 67 18" id="arrow-long">
    <path d="M1.99902 7.24219C1.1706 7.24219 0.499023 7.91376 0.499023 8.74219C0.499023 9.57061 1.1706 10.2422 1.99902 10.2422V7.24219ZM66.999 8.74219L51.999 0.081933V17.4024L66.999 8.74219ZM1.99902 10.2422H53.499V7.24219H1.99902V10.2422Z" fill="#334752"></path>
  </symbol>
  <symbol fill="none" xmlns="http://www.w3.org/2000/svg" viewBox="0 0 23 12" id="arrow-short">
    <path d="M1 5C0.447715 5 0 5.44772 0 6C0 6.55228 0.447715 7 1 7L1 5ZM23 6L13 0.226497L13 11.7735L23 6ZM1 7L14 7V5L1 5L1 7Z" fill="#3E8A74"></path>
  </symbol>
  <symbol fill="none" xmlns="http://www.w3.org/2000/svg" viewBox="0 0 23 12" id="arrow-short-orange">
    <path d="M1 5C0.447715 5 0 5.44772 0 6C0 6.55228 0.447715 7 1 7L1 5ZM23 6L13 0.226497L13 11.7735L23 6ZM1 7L14 7V5L1 5L1 7Z" fill="#E36F2C"></path>
  </symbol>
  <symbol fill="none" xmlns="http://www.w3.org/2000/svg" viewBox="0 0 23 23" id="calendar-form">
    <path d="M21.6631 1.90985H17.134V0H15.497V1.90985H6.98458V0H5.34757V1.90985H0.818505C0.354686 1.90985 0 2.26453 0 2.72835V22.1815C0 22.6453 0.354686 23 0.818505 23H21.6631C22.1269 23 22.4816 22.6453 22.4816 22.1815V2.72835C22.4816 2.29182 22.1269 1.90985 21.6631 1.90985ZM5.59312 18.7983C4.69276 18.7983 3.98339 18.089 3.98339 17.1886C3.98339 16.2883 4.69276 15.5789 5.59312 15.5789C6.49347 15.5789 7.20285 16.2883 7.20285 17.1886C7.20285 18.089 6.49347 18.7983 5.59312 18.7983ZM5.59312 13.9964C4.69276 13.9964 3.98339 13.2871 3.98339 12.3867C3.98339 11.4864 4.69276 10.777 5.59312 10.777C6.49347 10.777 7.20285 11.4864 7.20285 12.3867C7.20285 13.2871 6.49347 13.9964 5.59312 13.9964ZM11.2408 18.7983C10.3404 18.7983 9.63108 18.089 9.63108 17.1886C9.63108 16.2883 10.3404 15.5789 11.2408 15.5789C12.1412 15.5789 12.8505 16.2883 12.8505 17.1886C12.8505 18.0617 12.1412 18.7983 11.2408 18.7983ZM11.2408 13.9964C10.3404 13.9964 9.63108 13.2871 9.63108 12.3867C9.63108 11.4864 10.3404 10.777 11.2408 10.777C12.1412 10.777 12.8505 11.4864 12.8505 12.3867C12.8505 13.2598 12.1412 13.9964 11.2408 13.9964ZM16.8885 18.7983C15.9881 18.7983 15.2788 18.089 15.2788 17.1886C15.2788 16.2883 15.9881 15.5789 16.8885 15.5789C17.7888 15.5789 18.4982 16.2883 18.4982 17.1886C18.4982 18.089 17.7888 18.7983 16.8885 18.7983ZM16.8885 13.9964C15.9881 13.9964 15.2788 13.2871 15.2788 12.3867C15.2788 11.4864 15.9881 10.777 16.8885 10.777C17.7888 10.777 18.4982 11.4864 18.4982 12.3867C18.4982 13.2871 17.7888 13.9964 16.8885 13.9964ZM20.8446 6.76631H1.63701V3.54686H5.34757V5.51127H6.98458V3.54686H15.497V5.51127H17.134V3.54686H20.8446V6.76631Z" fill="#3E8A74"></path>
  </symbol>
  <symbol fill="none" xmlns="http://www.w3.org/2000/svg" viewBox="0 0 25 24" id="cart">
    <path d="M18.946 18.1201C17.3461 18.1201 16.0269 19.4205 16.0269 21.0601C16.0269 22.6714 17.3181 24 18.946 24C20.5459 24 21.8652 22.6996 21.8652 21.0601C21.8371 19.4488 20.5459 18.1201 18.946 18.1201Z" fill="#334752"></path>
    <path d="M24.0827 4.09894C24.0266 4.09894 23.9424 4.07067 23.8581 4.07067H6.17505L5.89437 2.17668C5.72596 0.932862 4.65936 0 3.39628 0H1.12274C0.505231 0 0 0.508834 0 1.13074C0 1.75265 0.505231 2.26148 1.12274 2.26148H3.39628C3.53662 2.26148 3.64889 2.37456 3.67696 2.5159L5.4172 14.4452C5.64175 15.9435 6.9329 17.0742 8.44859 17.0742H20.125C21.5846 17.0742 22.8477 16.0283 23.1564 14.5866L24.9809 5.39929C25.0932 4.80565 24.7002 4.21201 24.0827 4.09894Z" fill="#334752"></path>
    <path d="M11.7888 20.9187C11.7326 19.364 10.4415 18.1201 8.89771 18.1201C7.26974 18.2049 6.03473 19.5618 6.09087 21.1731C6.14701 22.7279 7.41009 23.9717 8.95385 23.9717H9.00998C10.6099 23.8869 11.873 22.53 11.7888 20.9187Z" fill="#334752"></path>
  </symbol>
  <symbol fill="none" xmlns="http://www.w3.org/2000/svg" viewBox="0 0 25 24" id="cart-w">
    <path d="M18.946 18.1201C17.3461 18.1201 16.0269 19.4205 16.0269 21.0601C16.0269 22.6714 17.3181 24 18.946 24C20.5459 24 21.8652 22.6996 21.8652 21.0601C21.8371 19.4488 20.5459 18.1201 18.946 18.1201Z" fill="white"></path>
    <path d="M24.0827 4.09894C24.0266 4.09894 23.9424 4.07067 23.8581 4.07067H6.17505L5.89437 2.17668C5.72596 0.932862 4.65936 0 3.39628 0H1.12274C0.505231 0 0 0.508834 0 1.13074C0 1.75265 0.505231 2.26148 1.12274 2.26148H3.39628C3.53662 2.26148 3.64889 2.37456 3.67696 2.5159L5.4172 14.4452C5.64175 15.9435 6.9329 17.0742 8.44859 17.0742H20.125C21.5846 17.0742 22.8477 16.0283 23.1564 14.5866L24.9809 5.39929C25.0932 4.80565 24.7002 4.21201 24.0827 4.09894Z" fill="white"></path>
    <path d="M11.7888 20.9187C11.7326 19.364 10.4415 18.1201 8.89771 18.1201C7.26974 18.2049 6.03473 19.5618 6.09087 21.1731C6.14701 22.7279 7.41009 23.9717 8.95385 23.9717H9.00998C10.6099 23.8869 11.873 22.53 11.7888 20.9187Z" fill="white"></path>
  </symbol>
  <symbol fill="none" xmlns="http://www.w3.org/2000/svg" viewBox="0 0 12 12" id="check-btn">
    <path d="M4.69149 3.55851C4.53192 3.39894 4.32447 3.31915 4.11702 3.31915C3.90957 3.31915 3.70213 3.39894 3.55851 3.55851C3.25532 3.8617 3.25532 4.37234 3.55851 4.69149C3.87766 4.99468 4.37234 4.99468 4.69149 4.69149C4.99468 4.3883 4.99468 3.87766 4.69149 3.55851Z" fill="white"></path>
    <path d="M11.3457 5.26596L6.38298 0.287234C6.19149 0.0957447 5.92021 0 5.64894 0L1.08511 0.111702C0.542553 0.12766 0.12766 0.558511 0.111702 1.08511L0 5.64894C0 5.92021 0.0957447 6.19149 0.287234 6.38298L5.25 11.3457C5.66489 11.7606 6.2234 12 6.81383 12C7.40426 12 7.96277 11.7766 8.37766 11.3457L11.3457 8.39362C11.7606 7.97872 12 7.42021 12 6.82979C12 6.23936 11.7766 5.68085 11.3457 5.26596ZM5.3617 5.3617C5.0266 5.69681 4.56383 5.87234 4.11702 5.87234C3.67021 5.87234 3.2234 5.69681 2.87234 5.3617C2.18617 4.67553 2.18617 3.55851 2.87234 2.87234C3.55851 2.18617 4.67553 2.18617 5.3617 2.87234C6.04787 3.55851 6.04787 4.67553 5.3617 5.3617Z" fill="white"></path>
  </symbol>
  <symbol fill="none" xmlns="http://www.w3.org/2000/svg" viewBox="0 0 13 13" id="check-green">
    <path d="M6.5 0C2.92154 0 0 2.92154 0 6.5C0 10.0785 2.92154 13 6.5 13C10.0785 13 13 10.0785 13 6.5C13 2.92154 10.0785 0 6.5 0ZM6.20612 8.88564C6.06782 9.00665 5.89495 9.0758 5.72207 9.0758C5.5492 9.0758 5.37633 9.00665 5.23803 8.86835L2.69681 6.32713L3.68218 5.34176L5.73936 7.39894L9.33511 3.97606L10.2859 4.97872L6.20612 8.88564Z" fill="#3E8A74"></path>
  </symbol>
  <symbol fill="none" xmlns="http://www.w3.org/2000/svg" viewBox="0 0 11 14" id="doc">
    <path d="M10.5272 0H1.68625C0.756447 0 0 0.781395 0 1.74186V12.2093C0 13.2023 0.772206 14 1.73352 14H9.26648C10.2278 14 11 13.2023 11 12.2093V0.488372C11 0.211628 10.7951 0 10.5272 0ZM2.47421 13.0233H1.73352C1.29226 13.0233 0.945559 12.6651 0.945559 12.2093V3.30465C1.18195 3.4186 1.4341 3.48372 1.68625 3.48372H2.47421V13.0233ZM10.0544 2.50698H1.68625C1.2765 2.50698 0.945559 2.16512 0.945559 1.74186C0.945559 1.3186 1.2765 0.976744 1.68625 0.976744H10.0544V2.50698Z" fill="#3E8A74"></path>
  </symbol>
  <symbol fill="none" xmlns="http://www.w3.org/2000/svg" viewBox="0 0 47 44" id="light">
    <path d="M32.4888 16.6557C32.1373 16.1368 31.6854 15.6698 31.2335 15.2547C26.413 10.8443 19.0315 11.3113 14.8136 16.3443C13.2569 18.2123 12.2527 20.4953 11.9514 22.934C11.4995 26.9293 13.0561 30.8727 16.0689 33.4151L16.6213 33.9859H30.4803L30.8318 33.5708C35.8029 29.368 36.5562 21.7925 32.4888 16.6557Z" fill="#E36F2C"></path>
    <path d="M17.3239 36.0613V42.4434C17.3239 43.3255 17.9767 44 18.8303 44H28.1701C29.0237 44 29.6765 43.3255 29.6765 42.4434V36.0613H17.3239Z" fill="#E36F2C"></path>
    <path d="M25.0065 0H21.9936V8.04247H25.0065V0Z" fill="#E36F2C"></path>
    <path d="M7.78314 22.7264H0V25.8396H7.78314V22.7264Z" fill="#E36F2C"></path>
    <path d="M47 22.7264H39.2169V25.8396H47V22.7264Z" fill="#E36F2C"></path>
    <path d="M11.3633 34.6629L5.85992 40.3496L7.99029 42.551L13.4937 36.8642L11.3633 34.6629Z" fill="#E36F2C"></path>
    <path d="M39.0566 6.01771L33.5532 11.7045L35.6836 13.9058L41.187 8.21907L39.0566 6.01771Z" fill="#E36F2C"></path>
    <path d="M7.9722 6.02996L5.84183 8.23131L11.3452 13.9181L13.4756 11.7167L7.9722 6.02996Z" fill="#E36F2C"></path>
    <path d="M35.693 34.6485L33.5627 36.8498L39.0661 42.5366L41.1964 40.3352L35.693 34.6485Z" fill="#E36F2C"></path>
  </symbol>
  <symbol fill="none" xmlns="http://www.w3.org/2000/svg" viewBox="0 0 24 24" id="phone-form">
    <path d="M9.93894 14.0621C7.64831 11.7713 7.13109 9.4805 7.01441 8.5627C6.9818 8.30892 7.06913 8.05442 7.25067 7.87414L9.10437 6.02115C9.37705 5.74862 9.42544 5.32389 9.22105 4.997L6.26962 0.413775C6.0435 0.0518049 5.57922 -0.0788337 5.19754 0.112116L0.459449 2.34373C0.150801 2.49572 -0.0307425 2.82367 0.00430115 3.16594C0.252564 5.52459 1.28078 11.3227 6.97841 17.0211C12.676 22.7195 18.473 23.7474 20.8327 23.9957C21.175 24.0307 21.5029 23.8492 21.6549 23.5405L23.8863 18.8021C24.0766 18.4212 23.9468 17.9582 23.5863 17.7316L19.0034 14.7808C18.6767 14.5762 18.2521 14.6243 17.9793 14.8967L16.1265 16.7505C15.9462 16.9321 15.6917 17.0194 15.438 16.9868C14.5202 16.8701 12.2296 16.3529 9.93894 14.0621Z" fill="#3E8A74"></path>
    <path d="M19.0347 12.8277C18.5777 12.8277 18.2072 12.4572 18.2072 12.0001C18.2033 8.57372 15.4268 5.79704 12.0006 5.79316C11.5436 5.79316 11.1731 5.42263 11.1731 4.96556C11.1731 4.5085 11.5436 4.13797 12.0006 4.13797C16.3405 4.14276 19.8575 7.65996 19.8623 12.0001C19.8623 12.4572 19.4918 12.8277 19.0347 12.8277Z" fill="#3E8A74"></path>
    <path d="M23.1725 12.8277C22.7154 12.8277 22.3449 12.4572 22.3449 12.0001C22.3385 6.28943 17.711 1.66158 12.0006 1.65519C11.5436 1.65519 11.1731 1.28466 11.1731 0.827596C11.1731 0.370527 11.5436 0 12.0006 0C18.6247 0.00729769 23.9927 5.37567 24 12.0001C24 12.2196 23.9128 12.4301 23.7576 12.5853C23.6024 12.7405 23.3919 12.8277 23.1725 12.8277Z" fill="#3E8A74"></path>
  </symbol>
  <symbol fill="none" xmlns="http://www.w3.org/2000/svg" viewBox="0 0 13 13" id="plus">
    <path d="M6.5 0C2.93293 0 0 2.93293 0 6.5C0 10.0671 2.93293 13 6.5 13C10.0671 13 13 10.0671 13 6.5C13 2.93293 10.0671 0 6.5 0ZM9.5439 7.10244H7.10244V9.5439C7.10244 9.89268 6.83293 10.1463 6.5 10.1463C6.16707 10.1463 5.89756 9.87683 5.89756 9.5439V7.10244H3.4561C3.10732 7.10244 2.85366 6.83293 2.85366 6.5C2.85366 6.16707 3.10732 5.89756 3.4561 5.89756H5.89756V3.4561C5.89756 3.10732 6.16707 2.85366 6.5 2.85366C6.83293 2.85366 7.10244 3.12317 7.10244 3.4561V5.89756H9.5439C9.89268 5.89756 10.1463 6.16707 10.1463 6.5C10.1463 6.83293 9.87683 7.10244 9.5439 7.10244Z" fill="#3E8A74"></path>
  </symbol>
  <symbol fill="none" xmlns="http://www.w3.org/2000/svg" viewBox="0 0 21 19" id="star">
    <path d="M10.5 0L13.5056 6.36309L20.4861 7.25532L15.3632 12.0802L16.6717 18.9947L10.5 15.6135L4.32825 18.9947L5.63677 12.0802L0.513906 7.25532L7.49436 6.36309L10.5 0Z" fill="#E36F2C"></path>
  </symbol>
  <symbol fill="none" xmlns="http://www.w3.org/2000/svg" viewBox="0 0 27 26" id="star-05">
    <path d="M13.5593 1.17067L16.8184 8.07021L16.9354 8.3179L17.2071 8.35263L24.776 9.32008L19.2213 14.5517L19.0219 14.7395L19.0728 15.0086L20.4916 22.5061L13.7996 18.8399L13.5593 18.7082L13.3191 18.8399L6.62703 22.5061L8.04587 15.0086L8.0968 14.7395L7.89739 14.5517L2.34264 9.32008L9.91159 8.35263L10.1833 8.3179L10.3003 8.07021L13.5593 1.17067Z" stroke="#C4C4C4"></path>
    <path d="M13.5 19.5V0L9.61893 7.85666L1 8.95832L7.32533 14.9157L5.70967 23.4532L13.5 19.5Z" fill="#3E8A74"></path>
  </symbol>
  <symbol fill="none" xmlns="http://www.w3.org/2000/svg" viewBox="0 0 26 24" id="star-green">
    <path d="M12.9646 0L16.6757 7.85666L25.2947 8.95832L18.9693 14.9157L20.585 23.4532L12.9646 19.2784L5.3442 23.4532L6.95986 14.9157L0.634533 8.95832L9.25347 7.85666L12.9646 0Z" fill="#3E8A74"></path>
  </symbol>
  <symbol fill="none" xmlns="http://www.w3.org/2000/svg" viewBox="0 0 21 19" id="star-o">
    <path d="M10.5 1.17067L13.0535 6.57664L13.1705 6.82433L13.4422 6.85906L19.3727 7.61708L15.0204 11.7162L14.821 11.904L14.8719 12.1731L15.9836 18.0476L10.7402 15.175L10.5 15.0434L10.2598 15.175L5.01636 18.0476L6.12805 12.1731L6.17899 11.904L5.97958 11.7162L1.62728 7.61708L7.55775 6.85906L7.82947 6.82433L7.94646 6.57664L10.5 1.17067Z" stroke="#C4C4C4"></path>
  </symbol>
  <symbol fill="none" xmlns="http://www.w3.org/2000/svg" viewBox="0 0 27 27" id="tgg">
    <g clip-path="url(#clip0)">
      <path d="M10.5942 17.0787L10.1476 23.3607C10.7866 23.3607 11.0633 23.0862 11.3952 22.7565L14.3911 19.8934L20.5988 24.4395C21.7373 25.074 22.5395 24.7399 22.8466 23.3922L26.9213 4.29865L26.9224 4.29753C27.2836 2.61453 26.3138 1.9564 25.2046 2.36928L1.25333 11.5392C-0.381297 12.1737 -0.356547 13.0849 0.975453 13.4978L7.09883 15.4024L21.3222 6.50253C21.9916 6.05928 22.6002 6.30453 22.0996 6.74778L10.5942 17.0787Z" fill="white"></path>
    </g>
    <defs>
      <clipPath id="clip0">
        <rect width="27" height="27" fill="white"></rect>
      </clipPath>
    </defs>
  </symbol>
  <symbol fill="none" xmlns="http://www.w3.org/2000/svg" viewBox="0 0 27 24" id="tools">
    <path d="M14.8843 4.45714V0H12.115V4.45714H9.69192V12H12.115V24H14.8843V12H17.3074V4.45714H14.8843Z" fill="#334752"></path>
    <path d="M24.5769 10.9714V0H21.8077V10.9714H19.3846V18.5143H21.8077V24H24.5769V18.5143H27V10.9714H24.5769Z" fill="#334752"></path>
    <path d="M5.19235 10.9714V0H2.42309V10.9714H0V18.5143H2.42309V24H5.19235V18.5143H7.61544V10.9714H5.19235Z" fill="#334752"></path>
  </symbol>
  <symbol fill="none" xmlns="http://www.w3.org/2000/svg" viewBox="0 0 18 16" id="tools-min">
    <path d="M9.42285 2.97143V3.47143H9.92285H11.0382V7.5H9.92285H9.42285V8V15.5H8.57668V8V7.5H8.07668H6.96128V3.47143H8.07668H8.57668V2.97143V0.5H9.42285V2.97143ZM15.8846 7.31429V7.81429H16.3846H17.5V11.8429H16.3846H15.8846V12.3429V15.5H15.0384V12.3429V11.8429H14.5384H13.423V7.81429H14.5384H15.0384V7.31429V0.5H15.8846V7.31429ZM2.96156 7.31429V7.81429H3.46156H4.57696V11.8429H3.46156H2.96156V12.3429V15.5H2.1154V12.3429V11.8429H1.6154H0.5V7.81429H1.6154H2.1154V7.31429V0.5H2.96156V7.31429Z" fill="#3E8A74" stroke="#3E8A74"></path>
  </symbol>
  <symbol fill="none" xmlns="http://www.w3.org/2000/svg" viewBox="0 0 27 24" id="tools-w">
    <path d="M14.8843 4.45714V0H12.115V4.45714H9.69192V12H12.115V24H14.8843V12H17.3074V4.45714H14.8843Z" fill="white"></path>
    <path d="M24.5769 10.9714V0H21.8077V10.9714H19.3846V18.5143H21.8077V24H24.5769V18.5143H27V10.9714H24.5769Z" fill="white"></path>
    <path d="M5.19235 10.9714V0H2.42309V10.9714H0V18.5143H2.42309V24H5.19235V18.5143H7.61544V10.9714H5.19235Z" fill="white"></path>
  </symbol>
  <symbol fill="none" xmlns="http://www.w3.org/2000/svg" viewBox="0 0 22 24" id="user">
    <path d="M10.743 0C7.31443 0 4.51172 2.80271 4.51172 6.2313C4.51172 9.6599 7.31443 12.4626 10.743 12.4626C14.1716 12.4626 16.9743 9.6599 16.9743 6.2313C16.9743 2.80271 14.1716 0 10.743 0Z" fill="#334752"></path>
    <path d="M21.437 17.4422C21.2737 17.034 21.0561 16.6531 20.8112 16.2993C19.5594 14.449 17.6275 13.2245 15.4506 12.9252C15.1786 12.898 14.8792 12.9524 14.6615 13.1156C13.5187 13.9592 12.1581 14.3945 10.7431 14.3945C9.32814 14.3945 7.96762 13.9592 6.82475 13.1156C6.60704 12.9524 6.30772 12.8707 6.03564 12.9252C3.85876 13.2245 1.8996 14.449 0.675118 16.2993C0.430223 16.6531 0.212514 17.0613 0.0492852 17.4422C-0.0323294 17.6055 -0.00514194 17.7959 0.0764726 17.9592C0.294181 18.3402 0.566264 18.7212 0.81116 19.0477C1.1921 19.5647 1.60027 20.0273 2.06288 20.4626C2.44382 20.8436 2.87918 21.1973 3.3146 21.5511C5.46423 23.1565 8.04928 24 10.716 24C13.3826 24 15.9677 23.1565 18.1173 21.5511C18.5527 21.2245 18.988 20.8436 19.369 20.4626C19.8044 20.0273 20.2398 19.5646 20.6207 19.0477C20.8928 18.6939 21.1378 18.3402 21.3554 17.9592C21.4914 17.7959 21.5186 17.6054 21.437 17.4422Z" fill="#334752"></path>
  </symbol>
  <symbol fill="none" xmlns="http://www.w3.org/2000/svg" viewBox="0 0 19 22" id="user-form">
    <path d="M9.31955 0C6.47472 0 4.17177 2.30296 4.17177 5.14778C4.17177 7.99261 6.47472 10.2956 9.31955 10.2956C12.1644 10.2956 14.4673 7.99261 14.4673 5.14778C14.4673 2.30296 12.1644 0 9.31955 0Z" fill="#3E8A74"></path>
    <path d="M11.3251 10.8917H7.31527C3.27832 10.8917 0 14.17 0 18.2069V21.1872C0 21.6478 0.352217 22 0.812808 22H17.8276C18.2882 22 18.6404 21.6478 18.6404 21.1872V18.2069C18.6404 14.17 15.3621 10.8917 11.3251 10.8917Z" fill="#3E8A74"></path>
  </symbol>
  <symbol fill="none" xmlns="http://www.w3.org/2000/svg" viewBox="0 0 22 24" id="user-w">
    <path d="M10.743 0C7.31443 0 4.51172 2.80271 4.51172 6.2313C4.51172 9.6599 7.31443 12.4626 10.743 12.4626C14.1716 12.4626 16.9743 9.6599 16.9743 6.2313C16.9743 2.80271 14.1716 0 10.743 0Z" fill="white"></path>
    <path d="M21.437 17.4422C21.2737 17.034 21.0561 16.6531 20.8112 16.2993C19.5594 14.449 17.6275 13.2245 15.4506 12.9252C15.1786 12.898 14.8792 12.9524 14.6615 13.1156C13.5187 13.9592 12.1581 14.3945 10.7431 14.3945C9.32814 14.3945 7.96762 13.9592 6.82475 13.1156C6.60704 12.9524 6.30772 12.8707 6.03564 12.9252C3.85876 13.2245 1.8996 14.449 0.675118 16.2993C0.430223 16.6531 0.212514 17.0613 0.0492852 17.4422C-0.0323294 17.6055 -0.00514194 17.7959 0.0764726 17.9592C0.294181 18.3402 0.566264 18.7212 0.81116 19.0477C1.1921 19.5647 1.60027 20.0273 2.06288 20.4626C2.44382 20.8436 2.87918 21.1973 3.3146 21.5511C5.46423 23.1565 8.04928 24 10.716 24C13.3826 24 15.9677 23.1565 18.1173 21.5511C18.5527 21.2245 18.988 20.8436 19.369 20.4626C19.8044 20.0273 20.2398 19.5646 20.6207 19.0477C20.8928 18.6939 21.1378 18.3402 21.3554 17.9592C21.4914 17.7959 21.5186 17.6054 21.437 17.4422Z" fill="white"></path>
  </symbol>
</svg>