<svg width="18" height="16" viewBox="0 0 18 16" fill="none" xmlns="http://www.w3.org/2000/svg">
<path d="M9.42285 2.97143V3.47143H9.92285H11.0382V7.5H9.92285H9.42285V8V15.5H8.57668V8V7.5H8.07668H6.96128V3.47143H8.07668H8.57668V2.97143V0.5H9.42285V2.97143ZM15.8846 7.31429V7.81429H16.3846H17.5V11.8429H16.3846H15.8846V12.3429V15.5H15.0384V12.3429V11.8429H14.5384H13.423V7.81429H14.5384H15.0384V7.31429V0.5H15.8846V7.31429ZM2.96156 7.31429V7.81429H3.46156H4.57696V11.8429H3.46156H2.96156V12.3429V15.5H2.1154V12.3429V11.8429H1.6154H0.5V7.81429H1.6154H2.1154V7.31429V0.5H2.96156V7.31429Z" fill="#3E8A74" stroke="#3E8A74"/>
</svg>
