<svg width="22" height="24" viewBox="0 0 22 24" fill="none" xmlns="http://www.w3.org/2000/svg">
<path d="M10.743 0C7.31443 0 4.51172 2.80271 4.51172 6.2313C4.51172 9.6599 7.31443 12.4626 10.743 12.4626C14.1716 12.4626 16.9743 9.6599 16.9743 6.2313C16.9743 2.80271 14.1716 0 10.743 0Z" fill="#334752"/>
<path d="M21.437 17.4422C21.2737 17.034 21.0561 16.6531 20.8112 16.2993C19.5594 14.449 17.6275 13.2245 15.4506 12.9252C15.1786 12.898 14.8792 12.9524 14.6615 13.1156C13.5187 13.9592 12.1581 14.3945 10.7431 14.3945C9.32814 14.3945 7.96762 13.9592 6.82475 13.1156C6.60704 12.9524 6.30772 12.8707 6.03564 12.9252C3.85876 13.2245 1.8996 14.449 0.675118 16.2993C0.430223 16.6531 0.212514 17.0613 0.0492852 17.4422C-0.0323294 17.6055 -0.00514194 17.7959 0.0764726 17.9592C0.294181 18.3402 0.566264 18.7212 0.81116 19.0477C1.1921 19.5647 1.60027 20.0273 2.06288 20.4626C2.44382 20.8436 2.87918 21.1973 3.3146 21.5511C5.46423 23.1565 8.04928 24 10.716 24C13.3826 24 15.9677 23.1565 18.1173 21.5511C18.5527 21.2245 18.988 20.8436 19.369 20.4626C19.8044 20.0273 20.2398 19.5646 20.6207 19.0477C20.8928 18.6939 21.1378 18.3402 21.3554 17.9592C21.4914 17.7959 21.5186 17.6054 21.437 17.4422Z" fill="#334752"/>
</svg>
