<svg width="11" height="16" viewBox="0 0 11 16" fill="none" xmlns="http://www.w3.org/2000/svg">
<path d="M9.68306 11.3825V13.3881H1.33487V11.3825C1.33487 11.3303 1.36287 11.2722 1.3971 11.2424C1.39722 11.2423 1.39734 11.2422 1.39746 11.2421L4.73622 8.37956L5.18016 7.99894L4.73521 7.61952L1.37863 4.75727C1.34454 4.72742 1.31672 4.66951 1.31672 4.61742V2.61183H9.68306V4.58923C9.67154 4.66791 9.63386 4.73022 9.60299 4.75727C9.60277 4.75747 9.60254 4.75766 9.60232 4.75786L6.24642 7.61952L5.79905 8.001L6.24743 8.38129L9.62147 11.243C9.65541 11.2729 9.68306 11.3306 9.68306 11.3825ZM10.5 0.895973H0.5V0.5H10.5V0.895973ZM10.5 15.5H0.5V15.104H10.5V15.5Z" fill="#3E8A74" stroke="#3E8A74"/>
</svg>
