<svg width="27" height="27" viewBox="0 0 27 27" fill="none" xmlns="http://www.w3.org/2000/svg">
<path d="M18.9566 0H8.04345C3.60827 0 0 3.60827 0 8.04345V18.9566C0 23.3917 3.60827 27 8.04345 27H18.9566C23.3917 27 27 23.3917 27 18.9566V8.04345C27 3.60827 23.3917 0 18.9566 0ZM24.2838 18.9566C24.2838 21.8987 21.8987 24.2838 18.9566 24.2838H8.04345C5.10131 24.2838 2.7162 21.8987 2.7162 18.9566V8.04345C2.7162 5.10126 5.10131 2.7162 8.04345 2.7162H18.9566C21.8987 2.7162 24.2838 5.10126 24.2838 8.04345V18.9566Z" fill="white"/>
<path d="M13.5 6.51684C9.64948 6.51684 6.51684 9.64948 6.51684 13.5C6.51684 17.3504 9.64948 20.4831 13.5 20.4831C17.3505 20.4831 20.4832 17.3505 20.4832 13.5C20.4832 9.64943 17.3505 6.51684 13.5 6.51684ZM13.5 17.767C11.1434 17.767 9.23304 15.8566 9.23304 13.5C9.23304 11.1434 11.1435 9.23304 13.5 9.23304C15.8566 9.23304 17.767 11.1434 17.767 13.5C17.767 15.8565 15.8565 17.767 13.5 17.767Z" fill="white"/>
<path d="M20.4967 8.24258C21.4208 8.24258 22.17 7.49341 22.17 6.56927C22.17 5.64513 21.4208 4.89596 20.4967 4.89596C19.5725 4.89596 18.8234 5.64513 18.8234 6.56927C18.8234 7.49341 19.5725 8.24258 20.4967 8.24258Z" fill="white"/>
</svg>
