<svg width="32" height="18" viewBox="0 0 32 18" fill="none" xmlns="http://www.w3.org/2000/svg">
<path d="M15.6576 17.9242H17.5697C17.5697 17.9242 18.1478 17.8611 18.4418 17.5475C18.7138 17.2597 18.7038 16.7194 18.7038 16.7194C18.7038 16.7194 18.6658 14.1895 19.8579 13.8168C21.032 13.4501 22.5401 16.2619 24.1382 17.3444C25.3463 18.1628 26.2644 17.9833 26.2644 17.9833L30.5387 17.9242C30.5387 17.9242 32.7749 17.7881 31.7148 16.0549C31.6288 15.9129 31.0967 14.7732 28.5365 12.4306C25.8563 9.97766 26.2164 10.376 29.4446 6.13455C31.4108 3.55145 32.1968 1.97398 31.9508 1.29961C31.7168 0.656789 30.2707 0.826367 30.2707 0.826367L25.4623 0.853973C25.4623 0.853973 25.1063 0.806649 24.8403 0.962424C24.5823 1.11623 24.4162 1.47116 24.4162 1.47116C24.4162 1.47116 23.6542 3.4706 22.6381 5.17032C20.496 8.7571 19.6379 8.94639 19.2879 8.72358C18.4738 8.20498 18.6778 6.63737 18.6778 5.52526C18.6778 2.04891 19.2119 0.599606 17.6357 0.224956C17.1117 0.100731 16.7277 0.0179136 15.3896 0.00411071C13.6734 -0.0136358 12.2193 0.0100262 11.3973 0.406366C10.8492 0.670592 10.4272 1.26017 10.6852 1.29369C11.0033 1.3351 11.7233 1.48496 12.1053 1.99764C12.5994 2.6582 12.5814 4.14497 12.5814 4.14497C12.5814 4.14497 12.8654 8.23653 11.9193 8.74527C11.2693 9.09428 10.3792 8.38245 8.46907 5.12694C7.491 3.46074 6.75094 1.61707 6.75094 1.61707C6.75094 1.61707 6.60893 1.27397 6.35491 1.09059C6.04689 0.867776 5.61486 0.79679 5.61486 0.79679L1.04252 0.824395C1.04252 0.824395 0.356473 0.844114 0.104454 1.13792C-0.119562 1.40017 0.0864528 1.94045 0.0864528 1.94045C0.0864528 1.94045 3.66672 10.1965 7.71901 14.3591C11.4373 18.1746 15.6576 17.9242 15.6576 17.9242Z" fill="white"/>
</svg>
