<svg width="25" height="24" viewBox="0 0 25 24" fill="none" xmlns="http://www.w3.org/2000/svg">
<path d="M18.946 18.1201C17.3461 18.1201 16.0269 19.4205 16.0269 21.0601C16.0269 22.6714 17.3181 24 18.946 24C20.5459 24 21.8652 22.6996 21.8652 21.0601C21.8371 19.4488 20.5459 18.1201 18.946 18.1201Z" fill="#334752"/>
<path d="M24.0827 4.09894C24.0266 4.09894 23.9424 4.07067 23.8581 4.07067H6.17505L5.89437 2.17668C5.72596 0.932862 4.65936 0 3.39628 0H1.12274C0.505231 0 0 0.508834 0 1.13074C0 1.75265 0.505231 2.26148 1.12274 2.26148H3.39628C3.53662 2.26148 3.64889 2.37456 3.67696 2.5159L5.4172 14.4452C5.64175 15.9435 6.9329 17.0742 8.44859 17.0742H20.125C21.5846 17.0742 22.8477 16.0283 23.1564 14.5866L24.9809 5.39929C25.0932 4.80565 24.7002 4.21201 24.0827 4.09894Z" fill="#334752"/>
<path d="M11.7888 20.9187C11.7326 19.364 10.4415 18.1201 8.89771 18.1201C7.26974 18.2049 6.03473 19.5618 6.09087 21.1731C6.14701 22.7279 7.41009 23.9717 8.95385 23.9717H9.00998C10.6099 23.8869 11.873 22.53 11.7888 20.9187Z" fill="#334752"/>
</svg>
