<svg width="11" height="14" viewBox="0 0 11 14" fill="none" xmlns="http://www.w3.org/2000/svg">
<path d="M10.5272 0H1.68625C0.756447 0 0 0.781395 0 1.74186V12.2093C0 13.2023 0.772206 14 1.73352 14H9.26648C10.2278 14 11 13.2023 11 12.2093V0.488372C11 0.211628 10.7951 0 10.5272 0ZM2.47421 13.0233H1.73352C1.29226 13.0233 0.945559 12.6651 0.945559 12.2093V3.30465C1.18195 3.4186 1.4341 3.48372 1.68625 3.48372H2.47421V13.0233ZM10.0544 2.50698H1.68625C1.2765 2.50698 0.945559 2.16512 0.945559 1.74186C0.945559 1.3186 1.2765 0.976744 1.68625 0.976744H10.0544V2.50698Z" fill="#3E8A74"/>
</svg>
