<svg width="26" height="26" viewBox="0 0 26 26" fill="none" xmlns="http://www.w3.org/2000/svg">
<path fill-rule="evenodd" clip-rule="evenodd" d="M13.0486 0C16.5098 0 19.7598 1.34875 22.2297 3.73642L22.2135 3.77867C30.308 11.8419 24.574 25.7779 13.0551 25.7779C12.9337 25.7625 12.7681 25.7534 12.5632 25.742C11.498 25.683 9.37055 25.5651 6.86283 24.2103L0 26L1.83731 19.3245C-3.12321 10.7629 3.11455 0 13.0486 0ZM13.066 23.5625L13.0725 23.5636C22.6858 23.5636 27.4037 11.9448 20.6839 5.28231C13.9478 -1.4506 2.30751 3.31281 2.30751 12.8386C2.30751 14.8633 2.87734 16.8296 3.94982 18.5369L4.20874 18.9431L3.12 22.8919L7.18245 21.8356C7.2082 21.8468 7.26198 21.8798 7.34256 21.9291C7.94009 22.2948 10.0111 23.5625 13.0486 23.5625H13.066Z" fill="#FAFAFA"/>
<path d="M18.9657 15.4993L18.9559 15.5805C18.6298 15.418 17.0417 14.6413 16.7459 14.534C16.0819 14.2881 16.2693 14.495 14.9942 15.9553C14.8046 16.1666 14.6161 16.1829 14.2944 16.0366C13.9694 15.8741 12.9262 15.5328 11.6912 14.4278C10.7292 13.5666 10.0835 12.5103 9.89286 12.1853C9.57545 11.6372 10.2395 11.5592 10.844 10.4152C10.9523 10.1877 10.8971 10.0089 10.8169 9.84752C10.7357 9.68502 10.0889 8.09252 9.81811 7.45768C9.55811 6.82502 9.29053 6.90518 9.09012 6.90518C8.46613 6.85102 8.01005 6.85968 7.60814 7.27785C5.85966 9.19968 6.30057 11.1822 7.79664 13.2903C10.7368 17.1383 12.3032 17.8468 15.1675 18.8305C15.941 19.0764 16.6463 19.0418 17.2042 18.9616C17.826 18.863 19.1184 18.1805 19.3882 17.4168C19.6644 16.653 19.6644 16.0193 19.5832 15.873C19.503 15.7268 19.2907 15.6455 18.9657 15.4993Z" fill="#FAFAFA"/>
</svg>
